# xmcd
#
# Track frame offsets:
#	150
#	4845
#	26460
#	55622
#	83997
#	112605
#	138727
#	165890
#	192867
#	221042
#
# Disc length: 3301 seconds
#
# Revision: 0
# Processed by: cddbd v1.4PL0 Copyright (c) Steve Scherf et al.
# Submitted via: dBpowerAMP V4.0
#
DISCID=760ce30a
DTITLE=Jam Trax - Ultimate Playalong
DYEAR=1900
DGENRE=Blues
TTITLE0=Tuning
TTITLE1=1
TTITLE2=2
TTITLE3=3
TTITLE4=4
TTITLE5=5
TTITLE6=6
TTITLE7=7
TTITLE8=8
TTITLE9=9
EXTD=
EXTT0=
EXTT1=
EXTT2=
EXTT3=
EXTT4=
EXTT5=
EXTT6=
EXTT7=
EXTT8=
EXTT9=
PLAYORDER=
